<svg width="24" height="24" viewBox="0 0 24 24" fill="none" xmlns="http://www.w3.org/2000/svg">
<path d="M18.2849 16.6944L23.1033 21.5116L21.5114 23.1035L16.6942 18.2851C14.9018 19.722 12.6723 20.5035 10.3751 20.5002C4.78606 20.5002 0.250061 15.9642 0.250061 10.3752C0.250061 4.78624 4.78606 0.250244 10.3751 0.250244C15.9641 0.250244 20.5001 4.78624 20.5001 10.3752C20.5033 12.6725 19.7218 14.902 18.2849 16.6944ZM16.0282 15.8596C17.4559 14.3914 18.2533 12.4232 18.2501 10.3752C18.2501 6.02374 14.7254 2.50024 10.3751 2.50024C6.02356 2.50024 2.50006 6.02374 2.50006 10.3752C2.50006 14.7256 6.02356 18.2502 10.3751 18.2502C12.423 18.2535 14.3912 17.4561 15.8594 16.0284L16.0282 15.8596Z" fill="white"/>
</svg>
